<svg width="116" height="46" viewBox="0 0 116 46" fill="none" xmlns="http://www.w3.org/2000/svg">
<g clip-path="url(#clip0_2152_5)">
<path d="M24.2641 36.056H18.592L17.1565 32.127H7.14268L5.67215 36.056H0L9.03341 12.8647H15.2658L24.2641 36.056ZM15.7909 27.7808L12.1496 17.8019L8.5082 27.7808H15.7909Z" fill="white"/>
<path d="M34.4796 36.4733C30.3246 36.4733 27.0334 35.2446 24.6058 32.7875L27.3018 29.0325C29.3092 31.1187 31.7833 32.1616 34.7247 32.1616C36.0083 32.1616 37.0005 31.9183 37.7006 31.4316C38.4243 30.9217 38.7863 30.3074 38.7863 29.5888C38.7863 28.963 38.4478 28.4414 37.7709 28.0242C37.1171 27.607 36.2886 27.3056 35.2846 27.1202C34.3045 26.9348 33.2306 26.6682 32.0637 26.3205C30.8965 25.9728 29.8111 25.5787 28.8074 25.1384C27.827 24.6979 26.9983 24.0025 26.3214 23.0522C25.6678 22.1018 25.341 20.9428 25.341 19.5752C25.341 17.5818 26.1463 15.9128 27.7569 14.5684C29.3676 13.2008 31.515 12.517 34.1993 12.517C37.9107 12.517 40.9451 13.5949 43.3029 15.7506L40.5367 19.3666C38.6928 17.6745 36.4284 16.8284 33.7442 16.8284C32.6939 16.8284 31.8768 17.0371 31.2933 17.4543C30.7097 17.8715 30.4179 18.4394 30.4179 19.158C30.4179 19.7143 30.7447 20.1895 31.3983 20.5836C32.0751 20.9544 32.9039 21.2326 33.8844 21.418C34.888 21.6035 35.9616 21.8816 37.1054 22.2525C38.2727 22.6002 39.3462 23.0058 40.3267 23.4694C41.3303 23.9098 42.1592 24.6168 42.8126 25.5904C43.4895 26.5407 43.828 27.6881 43.828 29.0325C43.828 31.2578 43.0226 33.0543 41.412 34.4217C39.8248 35.7893 37.5141 36.4733 34.4796 36.4733Z" fill="white"/>
<path d="M90.6303 36.056H84.9231L80.3365 27.8155H76.6951V36.056H71.723V12.8647H82.6473C85.0515 12.8647 86.9539 13.5601 88.3545 14.9508C89.7783 16.3416 90.4902 18.1381 90.4902 20.3401C90.4902 22.2408 89.9884 23.7823 88.9847 24.9645C88.0043 26.1466 86.802 26.9 85.3782 27.2245L90.6303 36.056ZM81.9119 23.4694C82.939 23.4694 83.7793 23.1912 84.4331 22.6349C85.0865 22.0554 85.4132 21.2905 85.4132 20.3401C85.4132 19.3897 85.0865 18.6364 84.4331 18.0801C83.7793 17.5006 82.939 17.2109 81.9119 17.2109H76.6951V23.4694H81.9119Z" fill="white"/>
<path d="M116 36.056H110.328L108.892 32.127H98.8787L97.4079 36.056H91.736L100.769 12.8647H107.002L116 36.056ZM107.527 27.7808L103.885 17.8019L100.244 27.7808H107.527Z" fill="white"/>
<g filter="url(#filter0_d_2152_5)">
<path fill-rule="evenodd" clip-rule="evenodd" d="M55.7385 46L57.133 33.3785L58.2419 23.7475L55.7385 22.2524L53.2351 23.7475L54.3319 33.3785L55.7385 46Z" fill="#FF0000"/>
</g>
<g filter="url(#filter1_d_2152_5)">
<path d="M55.7325 0L59.0386 9.56213H69.7376L61.0821 15.4719L64.3883 25.034L55.7325 19.1243L47.0766 25.034L50.3831 15.4719L41.7273 9.56213H52.4263L55.7325 0Z" fill="#FF0000"/>
</g>
<path fill-rule="evenodd" clip-rule="evenodd" d="M55.7387 46L57.1332 33.3786L58.242 23.7476L55.7387 22.2525L53.2353 23.7476L54.332 33.3786L55.7387 46Z" fill="#FF0000"/>
<path d="M55.7323 0L59.0385 9.56213H69.7375L61.082 15.4719L64.3882 25.034L55.7323 19.1243L47.0765 25.034L50.383 15.4719L41.7272 9.56213H52.4262L55.7323 0Z" fill="#FF0000"/>
</g>
<defs>
<filter id="filter0_d_2152_5" x="49.2351" y="22.2524" width="13.0068" height="31.7476" filterUnits="userSpaceOnUse" color-interpolation-filters="sRGB">
<feFlood flood-opacity="0" result="BackgroundImageFix"/>
<feColorMatrix in="SourceAlpha" type="matrix" values="0 0 0 0 0 0 0 0 0 0 0 0 0 0 0 0 0 0 127 0" result="hardAlpha"/>
<feOffset dy="4"/>
<feGaussianBlur stdDeviation="2"/>
<feComposite in2="hardAlpha" operator="out"/>
<feColorMatrix type="matrix" values="0 0 0 0 0 0 0 0 0 0 0 0 0 0 0 0 0 0 0.25 0"/>
<feBlend mode="normal" in2="BackgroundImageFix" result="effect1_dropShadow_2152_5"/>
<feBlend mode="normal" in="SourceGraphic" in2="effect1_dropShadow_2152_5" result="shape"/>
</filter>
<filter id="filter1_d_2152_5" x="37.7273" y="0" width="36.0103" height="33.034" filterUnits="userSpaceOnUse" color-interpolation-filters="sRGB">
<feFlood flood-opacity="0" result="BackgroundImageFix"/>
<feColorMatrix in="SourceAlpha" type="matrix" values="0 0 0 0 0 0 0 0 0 0 0 0 0 0 0 0 0 0 127 0" result="hardAlpha"/>
<feOffset dy="4"/>
<feGaussianBlur stdDeviation="2"/>
<feComposite in2="hardAlpha" operator="out"/>
<feColorMatrix type="matrix" values="0 0 0 0 0 0 0 0 0 0 0 0 0 0 0 0 0 0 0.25 0"/>
<feBlend mode="normal" in2="BackgroundImageFix" result="effect1_dropShadow_2152_5"/>
<feBlend mode="normal" in="SourceGraphic" in2="effect1_dropShadow_2152_5" result="shape"/>
</filter>
<clipPath id="clip0_2152_5">
<rect width="116" height="46" fill="white"/>
</clipPath>
</defs>
</svg>
